<?xml version="1.0" standalone="no"?>
<!DOCTYPE svg PUBLIC "-//W3C//DTD SVG 20010904//EN"
 "http://www.w3.org/TR/2001/REC-SVG-20010904/DTD/svg10.dtd">
<svg version="1.0" xmlns="http://www.w3.org/2000/svg"
 width="260.000000pt" height="260.000000pt" viewBox="0 0 260.000000 260.000000"
 preserveAspectRatio="xMidYMid meet">
<metadata>
Created by potrace 1.11, written by Peter Selinger 2001-2013
</metadata>
<g transform="translate(0.000000,260.000000) scale(0.100000,-0.100000)"
fill="#000000" stroke="none">
<path d="M1158 2595 c-2 -1 -21 -6 -43 -9 -22 -3 -56 -8 -75 -11 -57 -9 -219
-64 -297 -101 -389 -183 -662 -553 -730 -989 -10 -61 -9 -338 1 -380 3 -16 9
-48 12 -70 4 -22 10 -48 15 -57 5 -9 9 -26 9 -37 0 -12 4 -29 9 -39 5 -9 24
-54 42 -100 89 -231 304 -484 519 -611 110 -65 286 -138 375 -156 143 -28 193
-33 330 -30 377 7 703 157 950 438 218 246 326 544 320 877 -3 152 -4 162 -30
275 -17 74 -18 79 -29 110 -59 157 -107 251 -178 349 -63 87 -60 84 -143 166
-98 99 -208 178 -329 238 -137 69 -228 98 -391 129 -32 5 -331 13 -337 8z"/>
</g>
</svg>
